# Generated by scripts/generate-lightning-ribbons.mjs
# Original Lightning OBJ with baked endpoint taper. Do not edit by hand.
# This file uses centimeters as units for non-parametric coordinates.

mtllib Lightning2.mtl
g default
v -0.73159 0.102121 -0.245268
v -0.801595 0.345594 -0.384527
v -0.647966 0.55089 -0.471748
v -0.342281 0.680603 -0.46738
v 0.003111 0.681746 -0.436253
v 0.384333 0.596411 -0.44564
v 0.743316 0.403841 -0.356644
v 0.907411 0.28834 -0.17828
v 0.813063 0.123911 0.014558
v 0.608872 0.005697 0.197172
v 0.428786 -0.027856 0.318033
v -0.471844 -0.122528 0.133786
v -0.603063 -0.065062 -0.031072
v -0.808477 -0.019816 -0.235006
v -0.903424 0.121682 -0.455485
v -0.731143 0.304989 -0.584499
v -0.382175 0.458784 -0.576434
v 0.00188 0.459382 -0.535527
v 0.411712 0.351255 -0.531721
v 0.79599 0.189514 -0.433304
v 0.994907 0.100667 -0.230543
v 0.863661 -0.004727 0.019493
v 0.619574 -0.040801 0.210615
v 0.430642 -0.046079 0.324937
v -0.480138 -0.13768 0.143698
v -0.628774 -0.10193 -0.011194
v -0.82283 -0.164121 -0.235744
v -0.890761 -0.110048 -0.470899
v -0.7169 0.065334 -0.590803
v -0.375078 0.216055 -0.573756
v -0.000297 0.216055 -0.532445
v 0.382257 0.110634 -0.519694
v 0.759524 -0.021124 -0.443442
v 0.965732 -0.102238 -0.26428
v 0.853289 -0.136651 -0.010385
v 0.61798 -0.086779 0.203564
v 0.430613 -0.064201 0.322557
v -0.485528 -0.155691 0.147301
v -0.641038 -0.147737 -0.002284
vt 0.185336 0.068106
vt 0.264277 0.068106
vt 0.343217 0.068106
vt 0.422158 0.068106
vt 0.501099 0.068106
vt 0.580039 0.068106
vt 0.658980 0.068106
vt 0.737920 0.068106
vt 0.816861 0.068106
vt 0.895801 0.068106
vt 0.974742 0.068106
vt 0.026957 0.068106
vt 0.105898 0.068106
vt 0.184838 0.068106
vt 0.185336 0.500000
vt 0.264277 0.500000
vt 0.343217 0.500000
vt 0.422158 0.500000
vt 0.501099 0.500000
vt 0.580039 0.500000
vt 0.658980 0.500000
vt 0.737920 0.500000
vt 0.816861 0.500000
vt 0.895801 0.500000
vt 0.974742 0.500000
vt 0.026957 0.500000
vt 0.105898 0.500000
vt 0.184838 0.500000
vt 0.185336 0.931894
vt 0.264277 0.931894
vt 0.343217 0.931894
vt 0.422158 0.931894
vt 0.501099 0.931894
vt 0.580039 0.931894
vt 0.658980 0.931894
vt 0.737920 0.931894
vt 0.816861 0.931894
vt 0.895801 0.931894
vt 0.974742 0.931894
vt 0.026957 0.931894
vt 0.105898 0.931894
vt 0.184838 0.931894
vn -0.562119 0.569442 0.599799
vn -0.802007 0.596701 0.027061
vn -0.939479 0.297440 -0.170025
vn -0.779243 0.363198 0.510752
vn -0.314860 0.622574 -0.716425
vn -0.365152 0.341931 -0.865879
vn -0.005647 0.565519 -0.824716
vn 0.000362 0.327186 -0.944960
vn 0.080262 0.518776 -0.851134
vn 0.074716 0.280808 -0.956851
vn 0.190010 0.496463 -0.847007
vn 0.186472 0.246240 -0.951101
vn 0.478485 0.521637 -0.706361
vn 0.496050 0.243571 -0.833431
vn 0.835400 0.548819 -0.030091
vn 0.967460 0.198048 -0.157471
vn 0.657855 0.416607 0.627428
vn 0.794557 0.063624 0.603847
vn 0.479704 0.442775 0.757518
vn 0.559915 0.109603 0.821269
vn 0.414520 0.467355 0.780867
vn 0.464505 0.162016 0.870624
vn -0.398774 0.771421 0.495873
vn -0.423059 0.727795 0.539756
vn -0.587486 0.553369 0.590460
vn -0.510940 0.621891 0.593458
vn -0.982354 0.018231 -0.186140
vn -0.878976 0.191133 0.436885
vn -0.279563 0.010808 -0.960067
vn 0.069389 -0.000973 -0.997589
vn 0.056406 -0.031451 -0.997912
vn 0.112709 -0.047632 -0.992486
vn 0.406998 -0.045938 -0.912273
vn 0.953573 -0.157268 -0.256836
vn 0.812145 -0.241231 0.531251
vn 0.578776 -0.217996 0.785809
vn 0.464212 -0.186671 0.865830
vn -0.700671 0.363921 0.613695
vn -0.606002 0.430674 0.668791
s 1
g pSphere2
usemtl pSphere2SG
f 1/1/1 2/2/2 15/16/3 14/15/4
f 2/2/2 3/3/5 16/17/6 15/16/3
f 3/3/5 4/4/7 17/18/8 16/17/6
f 4/4/7 5/5/9 18/19/10 17/18/8
f 5/5/9 6/6/11 19/20/12 18/19/10
f 6/6/11 7/7/13 20/21/14 19/20/12
f 7/7/13 8/8/15 21/22/16 20/21/14
f 8/8/15 9/9/17 22/23/18 21/22/16
f 9/9/17 10/10/19 23/24/20 22/23/18
f 10/10/19 11/11/21 24/25/22 23/24/20
f 12/12/23 13/13/24 26/27/25 25/26/26
f 13/13/24 1/14/1 14/28/4 26/27/25
f 14/15/4 15/16/3 28/30/27 27/29/28
f 15/16/3 16/17/6 29/31/29 28/30/27
f 16/17/6 17/18/8 30/32/30 29/31/29
f 17/18/8 18/19/10 31/33/31 30/32/30
f 18/19/10 19/20/12 32/34/32 31/33/31
f 19/20/12 20/21/14 33/35/33 32/34/32
f 20/21/14 21/22/16 34/36/34 33/35/33
f 21/22/16 22/23/18 35/37/35 34/36/34
f 22/23/18 23/24/20 36/38/36 35/37/35
f 23/24/20 24/25/22 37/39/37 36/38/36
f 25/26/26 26/27/25 39/41/38 38/40/39
f 26/27/25 14/28/4 27/42/28 39/41/38
